<svg xmlns="http://www.w3.org/2000/svg" xmlns:xlink="http://www.w3.org/1999/xlink" viewBox="0 0 24 24"><g fill="none" stroke="currentColor" stroke-width="2" stroke-linecap="round" stroke-linejoin="round"><path d="M2 12h1"></path><path d="M6 8H4a1 1 0 0 0-1 1v6a1 1 0 0 0 1 1h2"></path><path d="M6 7v10a1 1 0 0 0 1 1h1a1 1 0 0 0 1-1V7a1 1 0 0 0-1-1H7a1 1 0 0 0-1 1z"></path><path d="M9 12h6"></path><path d="M15 7v10a1 1 0 0 0 1 1h1a1 1 0 0 0 1-1V7a1 1 0 0 0-1-1h-1a1 1 0 0 0-1 1z"></path><path d="M18 8h2a1 1 0 0 1 1 1v6a1 1 0 0 1-1 1h-2"></path><path d="M22 12h-1"></path></g></svg>
