<svg   viewBox="0 0 1024 1024" version="1.1" xmlns="http://www.w3.org/2000/svg" p-id="4293" xmlns:xlink="http://www.w3.org/1999/xlink" width="200" height="200"><path d="M256 232.618667c141.312 0 256 114.688 256 256V512H23.424A23.466667 23.466667 0 0 1 0 488.618667c0-141.312 114.688-256 256-256z" fill="#FBBB05" p-id="4294"></path><path d="M791.424 256c0 141.312-114.688 256-256 256H512V23.424A23.466667 23.466667 0 0 1 535.424 0c141.312 0 256 114.688 256 256z" fill="#E94335" p-id="4295"></path><path d="M768 791.424c-141.312 0-256-114.688-256-256V512h488.576a23.466667 23.466667 0 0 1 23.424 23.424c0 141.312-114.688 256-256 256z" fill="#4285F4" p-id="4296"></path><path d="M232.618667 768c0-141.312 114.688-256 256-256H512v488.576a23.466667 23.466667 0 0 1-23.381333 23.424c-141.312 0-256-114.688-256-256z" fill="#0F9D58" p-id="4297"></path></svg>
