<svg class="w-[34px] h-[50px]" xmlns="http://www.w3.org/2000/svg" xmlns:xlink="http://www.w3.org/1999/xlink" width="125" height="175" viewBox="0 0 125 175" fill="none"><defs><path id="path_0" transform="translate(0 0) rotate(0 50 50)" d="M0,16L0,84C0,92.84 7.16,100 16,100L84,100C92.84,100 100,92.84 100,84L100,16C100,7.16 92.84,0 84,0L16,0C7.16,0 0,7.16 0,16Z"></path><linearGradient id="linear_0" x1="5100%" y1="1870.27%" x2="5099%" y2="3318.5499999999997%" gradientUnits="objectBoundingBox"><stop offset="0" stop-color="#FFFFFF" stop-opacity="1"></stop><stop offset="1" stop-color="#FFFFFF" stop-opacity="1"></stop></linearGradient><linearGradient id="linear_1" x1="26.916000000000007%" y1="0%" x2="25.916000000000004%" y2="52.932%" gradientUnits="objectBoundingBox"><stop offset="0.25" stop-color="#FFFFFF" stop-opacity="1"></stop><stop offset="1" stop-color="#D6D6D6" stop-opacity="1"></stop></linearGradient><linearGradient id="linear_2" x1="50%" y1="0%" x2="49%" y2="188.59%" gradientUnits="objectBoundingBox"><stop offset="0" stop-color="#FFFFFF" stop-opacity="1"></stop><stop offset="1" stop-color="#99C9FF" stop-opacity="1"></stop></linearGradient></defs><g opacity="1" transform="translate(-0.00005290892613629694 0)  rotate(0 62.49966024352561 87.36628403240377)"><g opacity="1" transform="translate(0 0)  rotate(0 50 50)"><g opacity="1" transform="translate(0 0)  rotate(0 50 50)"><mask id="mask-0" fill="white"><use xlink:href="#path_0"></use></mask><g mask="url(#mask-0)"></g><g mask="url(#mask-0)"><g opacity="1" transform="translate(36.55769068782956 19.381602222701076)  rotate(0 14.44064319053026 7.269444295501112)"><path id="路径 3" fill-rule="evenodd" fill="url(#linear_0)" transform="translate(0 0)  rotate(0 14.440643190530258 7.269444295501112)" opacity="1" d="M14.44,4.81L8.3,2.77L1.36,0.07C0.58,-0.23 -0.2,0.5 0.04,1.29L3.7,13.24C3.8,13.59 4.09,13.85 4.45,13.91C5.74,14.11 9.11,14.54 14.44,14.54C19.77,14.54 23.14,14.11 24.42,13.91C24.78,13.85 25.07,13.59 25.18,13.24L28.83,1.29C29.08,0.5 28.29,-0.23 27.52,0.07L20.57,2.77L14.44,4.81Z "></path></g></g></g></g><path id="路径 2" fill-rule="evenodd" fill="url(#linear_1)" transform="translate(23.000436287867615 42.73071070704248)  rotate(0 50.99944209959174 66.00092867888253)" opacity="1" d="M7.96,27.6C5.94,42.41 -4.14,72.72 1.91,89.56C7.96,106.39 26.79,132.66 76.54,131.99C116.34,131.45 100.74,120.54 87.97,115.15C83.04,112.46 71.7,97.37 65.78,58.58C59.86,19.79 56.37,13.46 49.65,6.72C42.92,-0.01 27.19,-5.54 1.91,10.09C4.6,10.99 9.57,15.74 7.96,27.6Z "></path><path id="路径 5" fill-rule="evenodd" transform="translate(43 54)  rotate(0 3.5 3.5)" opacity="1" d="M7,3.5C7,1.57 5.43,0 3.5,0C1.57,0 0,1.57 0,3.5C0,5.43 1.57,7 3.5,7C5.43,7 7,5.43 7,3.5Z " style="fill: rgb(61, 61, 61);"></path><path id="路径 4" fill-rule="evenodd" fill="url(#linear_2)" transform="translate(45.13999999999987 14.021242251977913)  rotate(0 5.875 5.079378874011043)" opacity="1" d="M6.7,0.45C6.3,-0.15 5.42,-0.15 5.02,0.46L0,8.22L5.86,10.16L11.75,8.21L6.7,0.45Z "></path></g></svg>
