<svg  viewBox="0 0 16 16" fill="none" xmlns="http://www.w3.org/2000/svg" class="d-middle"><path d="M3.2591 2.66663H12.7406C12.8977 2.66663 13.0485 2.72906 13.1596 2.84019C13.2707 2.95132 13.3332 3.10205 13.3332 3.25922V12.7407C13.3332 12.8979 13.2707 13.0486 13.1596 13.1597C13.0485 13.2709 12.8977 13.3333 12.7406 13.3333H3.2591C3.10193 13.3333 2.9512 13.2709 2.84007 13.1597C2.72894 13.0486 2.6665 12.8979 2.6665 12.7407V3.25922C2.6665 3.10205 2.72894 2.95132 2.84007 2.84019C2.9512 2.72906 3.10193 2.66663 3.2591 2.66663ZM3.85169 3.85181V12.1481H12.148V3.85181H3.85169Z" fill="currentColor"></path></svg>
