<svg  viewBox="0 0 16 16" fill="none" xmlns="http://www.w3.org/2000/svg" class="d-middle"><path d="M11.3332 11.3333L11.3332 14C11.3332 14.1768 11.2629 14.3463 11.1379 14.4714C11.0129 14.5964 10.8433 14.6666 10.6665 14.6666L1.99984 14.6666C1.82303 14.6666 1.65346 14.5964 1.52843 14.4714C1.40341 14.3463 1.33317 14.1768 1.33317 14L1.33317 5.33329C1.33317 5.15648 1.40341 4.98691 1.52843 4.86189C1.65346 4.73686 1.82303 4.66663 1.99984 4.66663L4.6665 4.66663L4.6665 2.00463C4.6665 1.63396 4.96584 1.33329 5.33784 1.33329L13.9952 1.33329C14.0834 1.3332 14.1707 1.35051 14.2522 1.38422C14.3337 1.41792 14.4077 1.46737 14.4701 1.52973C14.5324 1.59208 14.5819 1.66612 14.6156 1.74761C14.6493 1.8291 14.6666 1.91644 14.6665 2.00463L14.6645 10.662C14.6645 11.0326 14.3652 11.3333 13.9932 11.3333L11.3332 11.3333ZM9.99984 11.3333L5.33784 11.3333C4.96717 11.3333 4.6665 11.034 4.6665 10.662L4.6665 5.99996L2.6665 5.99996L2.6665 13.3333L9.99984 13.3333L9.99984 11.3333ZM13.3312 9.99996L13.3332 2.66663L5.99984 2.66663L5.99984 9.99996L13.3312 9.99996Z" fill="currentColor"></path></svg>
